<svg xmlns="http://www.w3.org/2000/svg" width="794" height="1123">
  <defs>
    <linearGradient id="g1" x1="0%" y1="0%" x2="100%" y2="100%">
      <stop offset="0%" stop-color="#1a1a2e"/>
      <stop offset="50%" stop-color="#16213e"/>
      <stop offset="100%" stop-color="#0f3460"/>
    </linearGradient>
    <linearGradient id="g2" x1="100%" y1="0%" x2="0%" y2="100%">
      <stop offset="0%" stop-color="#e94560" stop-opacity="0.3"/>
      <stop offset="100%" stop-color="#533483" stop-opacity="0.1"/>
    </linearGradient>
    <radialGradient id="glow" cx="50%" cy="30%" r="50%">
      <stop offset="0%" stop-color="#e94560" stop-opacity="0.15"/>
      <stop offset="100%" stop-color="#1a1a2e" stop-opacity="0"/>
    </radialGradient>
  </defs>
  <rect width="794" height="1123" fill="url(#g1)"/>
  <rect width="794" height="1123" fill="url(#g2)"/>
  <rect width="794" height="1123" fill="url(#glow)"/>
  <!-- Geometric accent lines -->
  <g opacity="0.08" stroke="#e94560" fill="none" stroke-width="1">
    <path d="M0,200 L794,200 M0,400 L794,400 M0,600 L794,600 M0,800 L794,800"/>
    <path d="M200,0 L200,1123 M400,0 L400,1123 M600,0 L600,1123"/>
  </g>
  <!-- Corner accents -->
  <g stroke="#e94560" fill="none" opacity="0.4">
    <path d="M60,60 L60,120 M60,60 L120,60" stroke-width="2"/>
    <path d="M734,60 L734,120 M734,60 L674,60" stroke-width="2"/>
    <path d="M60,1063 L60,1003 M60,1063 L120,1063" stroke-width="2"/>
    <path d="M734,1063 L734,1003 M734,1063 L674,1063" stroke-width="2"/>
  </g>
  <!-- Network node dots -->
  <g fill="#e94560" opacity="0.3">
    <circle cx="200" cy="200" r="3"/>
    <circle cx="400" cy="200" r="4"/>
    <circle cx="600" cy="200" r="3"/>
    <circle cx="200" cy="600" r="4"/>
    <circle cx="400" cy="600" r="3"/>
    <circle cx="600" cy="600" r="4"/>
    <circle cx="300" cy="400" r="2"/>
    <circle cx="500" cy="800" r="2"/>
  </g>
  <!-- Connection lines -->
  <g stroke="#e94560" fill="none" opacity="0.12" stroke-width="1">
    <line x1="200" y1="200" x2="400" y2="200"/>
    <line x1="400" y1="200" x2="600" y2="200"/>
    <line x1="200" y1="200" x2="200" y2="600"/>
    <line x1="400" y1="200" x2="400" y2="600"/>
    <line x1="600" y1="200" x2="600" y2="600"/>
    <line x1="200" y1="600" x2="400" y2="600"/>
    <line x1="400" y1="600" x2="600" y2="600"/>
    <line x1="200" y1="200" x2="400" y2="600"/>
    <line x1="400" y1="200" x2="600" y2="600"/>
  </g>
</svg>